<svg xmlns="http://www.w3.org/2000/svg" xmlns:xlink="http://www.w3.org/1999/xlink" width="500" zoomAndPan="magnify" viewBox="0 0 375 374.999991" height="500" preserveAspectRatio="xMidYMid meet" version="1.0"><defs><g/><clipPath id="id1"><path d="M 119.308594 140 L 188 140 L 188 200 L 119.308594 200 Z M 119.308594 140 " clip-rule="nonzero"/></clipPath><clipPath id="id2"><path d="M 187 108.519531 L 255.808594 108.519531 L 255.808594 169 L 187 169 Z M 187 108.519531 " clip-rule="nonzero"/></clipPath></defs><g clip-path="url(#id1)"><path fill="#00adb5" d="M 165.269531 182.492188 L 165.269531 190.777344 L 127.644531 173.351562 L 127.644531 166.628906 L 165.269531 149.203125 L 165.269531 157.488281 L 136.816406 169.910156 L 136.816406 170.066406 Z M 187.617188 140 L 124.691406 140 C 121.722656 140 119.3125 142.402344 119.3125 145.363281 L 119.3125 194.617188 C 119.3125 197.578125 121.722656 199.980469 124.691406 199.980469 L 170.148438 199.980469 L 187.617188 140 " fill-opacity="1" fill-rule="nonzero"/></g><g clip-path="url(#id2)"><path fill="#ff5722" d="M 247.488281 142.132812 L 209.863281 159.324219 L 209.863281 151.039062 L 238.945312 138.613281 L 238.945312 138.457031 L 209.863281 126.035156 L 209.863281 117.75 L 247.488281 134.941406 Z M 205.085938 108.546875 L 187.617188 168.527344 L 250.4375 168.527344 C 253.410156 168.527344 255.816406 166.125 255.816406 163.164062 L 255.816406 113.910156 C 255.816406 110.949219 253.410156 108.546875 250.4375 108.546875 L 205.085938 108.546875 " fill-opacity="1" fill-rule="nonzero"/></g><g fill="#000000" fill-opacity="1"><g transform="translate(118.381382, 235.89561)"><g><path d="M 20.671875 3.03125 C 20.328125 3.195312 19.898438 3.367188 19.390625 3.546875 C 18.878906 3.722656 18.3125 3.882812 17.6875 4.03125 C 17.070312 4.175781 16.421875 4.296875 15.734375 4.390625 C 15.046875 4.484375 14.363281 4.53125 13.6875 4.53125 C 5.3125 4.53125 1.125 0.226562 1.125 -8.375 C 1.125 -10.851562 1.453125 -12.925781 2.109375 -14.59375 C 2.773438 -16.269531 3.6875 -17.609375 4.84375 -18.609375 C 6 -19.609375 7.351562 -20.316406 8.90625 -20.734375 C 10.457031 -21.148438 12.117188 -21.359375 13.890625 -21.359375 C 14.554688 -21.359375 15.210938 -21.3125 15.859375 -21.21875 C 16.503906 -21.125 17.109375 -21 17.671875 -20.84375 C 18.242188 -20.6875 18.769531 -20.507812 19.25 -20.3125 C 19.726562 -20.113281 20.132812 -19.921875 20.46875 -19.734375 L 20.46875 -13.21875 C 20.09375 -13.382812 19.632812 -13.546875 19.09375 -13.703125 C 18.550781 -13.859375 17.984375 -13.992188 17.390625 -14.109375 C 16.804688 -14.222656 16.21875 -14.316406 15.625 -14.390625 C 15.039062 -14.460938 14.523438 -14.5 14.078125 -14.5 C 13.296875 -14.5 12.5625 -14.410156 11.875 -14.234375 C 11.1875 -14.054688 10.582031 -13.738281 10.0625 -13.28125 C 9.550781 -12.820312 9.148438 -12.195312 8.859375 -11.40625 C 8.566406 -10.613281 8.421875 -9.601562 8.421875 -8.375 C 8.421875 -7.25 8.550781 -6.300781 8.8125 -5.53125 C 9.082031 -4.769531 9.46875 -4.15625 9.96875 -3.6875 C 10.46875 -3.226562 11.085938 -2.894531 11.828125 -2.6875 C 12.566406 -2.476562 13.410156 -2.375 14.359375 -2.375 C 14.753906 -2.375 15.226562 -2.398438 15.78125 -2.453125 C 16.34375 -2.515625 16.914062 -2.601562 17.5 -2.71875 C 18.082031 -2.832031 18.648438 -2.960938 19.203125 -3.109375 C 19.765625 -3.253906 20.242188 -3.410156 20.640625 -3.578125 Z M 20.671875 3.03125 "/></g></g></g><g fill="#000000" fill-opacity="1"><g transform="translate(141.730381, 235.89561)"><g><path d="M 25.59375 -8.40625 C 25.59375 -6.3125 25.300781 -4.457031 24.71875 -2.84375 C 24.144531 -1.226562 23.320312 0.125 22.25 1.21875 C 21.175781 2.3125 19.882812 3.140625 18.375 3.703125 C 16.875 4.273438 15.203125 4.5625 13.359375 4.5625 C 11.503906 4.5625 9.828125 4.273438 8.328125 3.703125 C 6.828125 3.140625 5.539062 2.3125 4.46875 1.21875 C 3.394531 0.125 2.566406 -1.226562 1.984375 -2.84375 C 1.410156 -4.457031 1.125 -6.3125 1.125 -8.40625 C 1.125 -10.488281 1.410156 -12.335938 1.984375 -13.953125 C 2.566406 -15.566406 3.394531 -16.921875 4.46875 -18.015625 C 5.539062 -19.109375 6.828125 -19.9375 8.328125 -20.5 C 9.828125 -21.070312 11.503906 -21.359375 13.359375 -21.359375 C 15.203125 -21.359375 16.875 -21.070312 18.375 -20.5 C 19.882812 -19.9375 21.175781 -19.109375 22.25 -18.015625 C 23.320312 -16.921875 24.144531 -15.566406 24.71875 -13.953125 C 25.300781 -12.335938 25.59375 -10.488281 25.59375 -8.40625 Z M 13.359375 -14.640625 C 11.941406 -14.640625 10.828125 -14.140625 10.015625 -13.140625 C 9.210938 -12.140625 8.8125 -10.597656 8.8125 -8.515625 C 8.8125 -6.398438 9.210938 -4.863281 10.015625 -3.90625 C 10.828125 -2.945312 11.90625 -2.46875 13.25 -2.46875 C 14.695312 -2.46875 15.832031 -2.945312 16.65625 -3.90625 C 17.476562 -4.863281 17.890625 -6.398438 17.890625 -8.515625 C 17.890625 -10.597656 17.488281 -12.140625 16.6875 -13.140625 C 15.882812 -14.140625 14.773438 -14.640625 13.359375 -14.640625 Z M 13.359375 -14.640625 "/></g></g></g><g fill="#a6a6a6" fill-opacity="1"><g transform="translate(169.662628, 235.89561)"><g><path d="M 9.359375 -21 C 11.128906 -21 12.785156 -20.804688 14.328125 -20.421875 C 15.878906 -20.046875 17.234375 -19.378906 18.390625 -18.421875 C 19.546875 -17.472656 20.457031 -16.179688 21.125 -14.546875 C 21.789062 -12.910156 22.125 -10.851562 22.125 -8.375 C 22.125 -4.082031 21.078125 -0.914062 18.984375 1.125 C 16.890625 3.175781 13.742188 4.203125 9.546875 4.203125 L 1.40625 4.203125 L 1.40625 -21 Z M 8.765625 -14.140625 L 8.765625 -2.71875 L 9.046875 -2.71875 C 9.960938 -2.71875 10.78125 -2.800781 11.5 -2.96875 C 12.21875 -3.132812 12.820312 -3.429688 13.3125 -3.859375 C 13.8125 -4.296875 14.1875 -4.875 14.4375 -5.59375 C 14.6875 -6.320312 14.8125 -7.25 14.8125 -8.375 C 14.8125 -9.601562 14.664062 -10.59375 14.375 -11.34375 C 14.082031 -12.101562 13.679688 -12.6875 13.171875 -13.09375 C 12.660156 -13.507812 12.054688 -13.785156 11.359375 -13.921875 C 10.671875 -14.066406 9.9375 -14.140625 9.15625 -14.140625 Z M 8.765625 -14.140625 "/></g></g></g><g fill="#a6a6a6" fill-opacity="1"><g transform="translate(194.131465, 235.89561)"><g><path d="M 9.1875 -21 L 9.1875 4.203125 L 1.6875 4.203125 L 1.6875 -21 Z M 9.1875 -21 "/></g></g></g><g fill="#a6a6a6" fill-opacity="1"><g transform="translate(206.22599, 235.89561)"><g><path d="M 1.40625 4.203125 L 1.40625 -21 L 9.265625 -21 L 15.453125 -8.90625 L 15.453125 -21 L 22.5625 -21 L 22.5625 4.203125 L 15.34375 4.203125 L 8.515625 -9.265625 L 8.515625 4.203125 Z M 1.40625 4.203125 "/></g></g></g><g fill="#a6a6a6" fill-opacity="1"><g transform="translate(231.422725, 235.89561)"><g><path d="M 23.515625 1.546875 C 22.691406 2.097656 21.847656 2.566406 20.984375 2.953125 C 20.117188 3.335938 19.253906 3.644531 18.390625 3.875 C 17.535156 4.113281 16.710938 4.28125 15.921875 4.375 C 15.128906 4.476562 14.382812 4.53125 13.6875 4.53125 C 5.3125 4.53125 1.125 0.226562 1.125 -8.375 C 1.125 -10.851562 1.441406 -12.925781 2.078125 -14.59375 C 2.722656 -16.269531 3.644531 -17.609375 4.84375 -18.609375 C 6.039062 -19.609375 7.472656 -20.316406 9.140625 -20.734375 C 10.804688 -21.148438 12.671875 -21.359375 14.734375 -21.359375 C 15.398438 -21.359375 16.109375 -21.3125 16.859375 -21.21875 C 17.617188 -21.125 18.351562 -21 19.0625 -20.84375 C 19.769531 -20.6875 20.421875 -20.507812 21.015625 -20.3125 C 21.617188 -20.113281 22.085938 -19.921875 22.421875 -19.734375 L 22.421875 -13.21875 C 22.054688 -13.382812 21.546875 -13.546875 20.890625 -13.703125 C 20.234375 -13.859375 19.535156 -13.992188 18.796875 -14.109375 C 18.066406 -14.222656 17.347656 -14.316406 16.640625 -14.390625 C 15.941406 -14.460938 15.367188 -14.5 14.921875 -14.5 C 13.859375 -14.5 12.921875 -14.410156 12.109375 -14.234375 C 11.296875 -14.054688 10.613281 -13.738281 10.0625 -13.28125 C 9.507812 -12.820312 9.097656 -12.195312 8.828125 -11.40625 C 8.554688 -10.613281 8.421875 -9.601562 8.421875 -8.375 C 8.421875 -7.25 8.550781 -6.300781 8.8125 -5.53125 C 9.082031 -4.769531 9.46875 -4.15625 9.96875 -3.6875 C 10.46875 -3.226562 11.085938 -2.894531 11.828125 -2.6875 C 12.566406 -2.476562 13.410156 -2.375 14.359375 -2.375 C 14.609375 -2.375 14.878906 -2.382812 15.171875 -2.40625 C 15.472656 -2.425781 15.800781 -2.453125 16.15625 -2.484375 L 16.15625 -4.53125 L 12.65625 -4.53125 L 12.65625 -11.03125 L 23.515625 -11.03125 Z M 23.515625 1.546875 "/></g></g></g><g fill="#000000" fill-opacity="1"><g transform="translate(118.311199, 267.728918)"><g><path d="M 13.40625 -14.25 L 15.234375 -6.234375 L 16.546875 -14.25 L 22 -14.25 L 18.109375 2.84375 L 13.015625 2.84375 L 11.1875 -4.734375 L 9.359375 2.84375 L 4.28125 2.84375 L 0.375 -14.25 L 5.828125 -14.25 L 7.125 -6.25 L 8.96875 -14.25 Z M 13.40625 -14.25 "/></g></g></g><g fill="#000000" fill-opacity="1"><g transform="translate(147.091632, 267.728918)"><g><path d="M 6.234375 -14.25 L 6.234375 2.84375 L 1.140625 2.84375 L 1.140625 -14.25 Z M 6.234375 -14.25 "/></g></g></g><g fill="#000000" fill-opacity="1"><g transform="translate(160.827148, 267.728918)"><g><path d="M 4.71875 -9.53125 L 0.5625 -9.53125 L 0.5625 -14.25 L 14.015625 -14.25 L 14.015625 -9.53125 L 9.828125 -9.53125 L 9.828125 2.84375 L 4.71875 2.84375 Z M 4.71875 -9.53125 "/></g></g></g><g fill="#000000" fill-opacity="1"><g transform="translate(181.781181, 267.728918)"><g><path d="M 6.0625 -14.25 L 6.0625 -8.375 L 10.140625 -8.375 L 10.140625 -14.25 L 15.25 -14.25 L 15.25 2.84375 L 10.140625 2.84375 L 10.140625 -3.546875 L 6.0625 -3.546875 L 6.0625 2.84375 L 0.953125 2.84375 L 0.953125 -14.25 Z M 6.0625 -14.25 "/></g></g></g><g fill="#000000" fill-opacity="1"><g transform="translate(204.34989, 267.728918)"><g/></g></g><g fill="#000000" fill-opacity="1"><g transform="translate(216.033827, 267.728918)"><g><path d="M 8.0625 2.609375 L 5.796875 -4.71875 L 5.640625 2.84375 L 0.765625 2.84375 L 1.65625 -14.25 L 7.46875 -14.25 L 10.125 -5.90625 L 12.828125 -14.25 L 18.640625 -14.25 L 19.53125 2.84375 L 14.65625 2.84375 L 14.5 -4.71875 L 12.234375 2.609375 Z M 8.0625 2.609375 "/></g></g></g><g fill="#000000" fill-opacity="1"><g transform="translate(242.629711, 267.728918)"><g><path d="M 12.75 -3.40625 L 6.0625 -3.40625 L 6.0625 -1.8125 L 13.3125 -1.8125 L 13.3125 2.84375 L 0.953125 2.84375 L 0.953125 -14.25 L 13 -14.25 L 13 -9.59375 L 6.0625 -9.59375 L 6.0625 -8.03125 L 12.75 -8.03125 Z M 12.75 -3.40625 "/></g></g></g></svg>