<svg xmlns="http://www.w3.org/2000/svg" xmlns:xlink="http://www.w3.org/1999/xlink" width="500" zoomAndPan="magnify" viewBox="0 0 375 374.999991" height="500" preserveAspectRatio="xMidYMid meet" version="1.0"><defs><g/><clipPath id="id1"><path d="M 119.308594 140 L 188 140 L 188 200 L 119.308594 200 Z M 119.308594 140 " clip-rule="nonzero"/></clipPath><clipPath id="id2"><path d="M 187 108.519531 L 255.808594 108.519531 L 255.808594 169 L 187 169 Z M 187 108.519531 " clip-rule="nonzero"/></clipPath></defs><g clip-path="url(#id1)"><path fill="#00adb5" d="M 165.269531 182.492188 L 165.269531 190.777344 L 127.644531 173.351562 L 127.644531 166.628906 L 165.269531 149.203125 L 165.269531 157.488281 L 136.816406 169.910156 L 136.816406 170.066406 Z M 187.617188 140 L 124.691406 140 C 121.722656 140 119.3125 142.402344 119.3125 145.363281 L 119.3125 194.617188 C 119.3125 197.578125 121.722656 199.980469 124.691406 199.980469 L 170.148438 199.980469 L 187.617188 140 " fill-opacity="1" fill-rule="nonzero"/></g><g clip-path="url(#id2)"><path fill="#ff5722" d="M 247.488281 142.132812 L 209.863281 159.324219 L 209.863281 151.039062 L 238.945312 138.613281 L 238.945312 138.457031 L 209.863281 126.035156 L 209.863281 117.75 L 247.488281 134.941406 Z M 205.085938 108.546875 L 187.617188 168.527344 L 250.4375 168.527344 C 253.410156 168.527344 255.816406 166.125 255.816406 163.164062 L 255.816406 113.910156 C 255.816406 110.949219 253.410156 108.546875 250.4375 108.546875 L 205.085938 108.546875 " fill-opacity="1" fill-rule="nonzero"/></g><g fill="#eeeeee" fill-opacity="1"><g transform="translate(126.209636, 269.228889)"><g><path d="M 17.144531 -14.25 L 14.035156 -3.46875 L 10.972656 -14.25 L 8.335938 -14.25 L 5.296875 -3.515625 L 2.207031 -14.25 L -0.261719 -14.25 L 3.941406 0 L 6.53125 0 L 9.640625 -11.398438 L 12.800781 0 L 15.410156 0 L 19.566406 -14.25 Z M 17.144531 -14.25 "/></g></g></g><g fill="#eeeeee" fill-opacity="1"><g transform="translate(151.879382, 269.228889)"><g><path d="M 1.6875 0 L 4.011719 0 L 4.011719 -14.25 L 1.6875 -14.25 Z M 1.6875 0 "/></g></g></g><g fill="#eeeeee" fill-opacity="1"><g transform="translate(163.919467, 269.228889)"><g><path d="M 9.902344 -14.25 L 0.046875 -14.25 L 0.046875 -12.085938 L 3.824219 -12.085938 L 3.824219 0 L 6.125 0 L 6.125 -12.085938 L 9.902344 -12.085938 Z M 9.902344 -14.25 "/></g></g></g><g fill="#eeeeee" fill-opacity="1"><g transform="translate(180.233666, 269.228889)"><g><path d="M 10.710938 -14.25 L 10.710938 -8.214844 L 3.894531 -8.214844 L 3.894531 -14.25 L 1.566406 -14.25 L 1.566406 0 L 3.894531 0 L 3.894531 -6.054688 L 10.710938 -6.054688 L 10.710938 0 L 13.035156 0 L 13.035156 -14.25 Z M 10.710938 -14.25 "/></g></g></g><g fill="#eeeeee" fill-opacity="1"><g transform="translate(201.201896, 269.228889)"><g/></g></g><g fill="#eeeeee" fill-opacity="1"><g transform="translate(213.26573, 269.228889)"><g><path d="M 14.058594 -14.25 L 9.046875 -3.085938 L 4.0625 -14.25 L 1.566406 -14.25 L 1.566406 0 L 3.894531 0 L 3.894531 -9.808594 L 8.265625 0 L 9.808594 0 L 14.222656 -9.832031 L 14.222656 0 L 16.527344 0 L 16.527344 -14.25 Z M 14.058594 -14.25 "/></g></g></g><g fill="#eeeeee" fill-opacity="1"><g transform="translate(237.724488, 269.228889)"><g><path d="M 9.855469 -12.132812 L 9.855469 -14.25 L 1.6875 -14.25 L 1.6875 0 L 9.855469 0 L 9.855469 -2.113281 L 4.011719 -2.113281 L 4.011719 -6.054688 L 9.070312 -6.054688 L 9.070312 -8.191406 L 4.011719 -8.191406 L 4.011719 -12.132812 Z M 9.855469 -12.132812 "/></g></g></g><g fill="#eeeeee" fill-opacity="1"><g transform="translate(122.905811, 237.534829)"><g><path d="M 12.285156 0.28125 C 16.378906 0.28125 19.914062 -1.996094 21.734375 -5.355469 L 18.792969 -6.929688 C 17.570312 -4.621094 15.117188 -3.113281 12.285156 -3.113281 C 8.152344 -3.113281 4.898438 -6.335938 4.898438 -10.5 C 4.898438 -14.664062 8.152344 -17.882812 12.285156 -17.882812 C 15.117188 -17.882812 17.570312 -16.378906 18.792969 -14.070312 L 21.734375 -15.644531 C 19.914062 -19.003906 16.378906 -21.277344 12.285156 -21.277344 C 6.335938 -21.277344 1.503906 -16.449219 1.503906 -10.5 C 1.503906 -4.550781 6.335938 0.28125 12.285156 0.28125 Z M 12.285156 0.28125 "/></g></g></g><g fill="#eeeeee" fill-opacity="1"><g transform="translate(146.884659, 237.534829)"><g><path d="M 12.285156 0.28125 C 18.234375 0.28125 23.0625 -4.550781 23.0625 -10.5 C 23.0625 -16.449219 18.234375 -21.277344 12.285156 -21.277344 C 6.335938 -21.277344 1.503906 -16.449219 1.503906 -10.5 C 1.503906 -4.550781 6.335938 0.28125 12.285156 0.28125 Z M 12.285156 -3.113281 C 8.152344 -3.113281 4.898438 -6.335938 4.898438 -10.5 C 4.898438 -14.664062 8.152344 -17.882812 12.285156 -17.882812 C 16.449219 -17.882812 19.667969 -14.664062 19.667969 -10.5 C 19.667969 -6.335938 16.449219 -3.113281 12.285156 -3.113281 Z M 12.285156 -3.113281 "/></g></g></g><g fill="#a6a6a6" fill-opacity="1"><g transform="translate(172.675339, 237.534829)"><g><path d="M 2.554688 0 L 8.292969 0 C 14.070312 0 18.792969 -4.691406 18.792969 -10.5 C 18.792969 -16.308594 14.070312 -21 8.292969 -21 L 2.554688 -21 Z M 4.757812 -2.238281 L 4.757812 -18.757812 L 8.257812 -18.757812 C 12.914062 -18.757812 16.554688 -15.222656 16.554688 -10.5 C 16.554688 -5.773438 12.914062 -2.238281 8.257812 -2.238281 Z M 4.757812 -2.238281 "/></g></g></g><g fill="#a6a6a6" fill-opacity="1"><g transform="translate(194.414498, 237.534829)"><g><path d="M 2.730469 0 L 4.96875 0 L 4.96875 -21 L 2.730469 -21 Z M 2.730469 0 "/></g></g></g><g fill="#a6a6a6" fill-opacity="1"><g transform="translate(203.310447, 237.534829)"><g><path d="M 17.636719 -21 L 17.636719 -3.746094 L 4.65625 -21 L 2.554688 -21 L 2.554688 0 L 4.792969 0 L 4.792969 -17.253906 L 17.742188 0 L 19.84375 0 L 19.84375 -21 Z M 17.636719 -21 "/></g></g></g><g fill="#a6a6a6" fill-opacity="1"><g transform="translate(226.939344, 237.534829)"><g><path d="M 12.5625 -11.128906 L 12.5625 -9.027344 L 21 -9.027344 C 20.332031 -4.96875 16.832031 -1.960938 12.597656 -1.960938 C 7.875 -1.960938 4.058594 -5.738281 4.058594 -10.5 C 4.058594 -15.257812 7.875 -19.039062 12.597656 -19.039062 C 15.785156 -19.039062 18.582031 -17.324219 20.019531 -14.734375 L 21.941406 -15.820312 C 20.125 -19.074219 16.625 -21.277344 12.597656 -21.277344 C 6.613281 -21.277344 1.820312 -16.449219 1.820312 -10.5 C 1.820312 -4.550781 6.613281 0.28125 12.597656 0.28125 C 18.546875 0.28125 23.378906 -4.550781 23.378906 -10.5 L 23.378906 -11.128906 Z M 12.5625 -11.128906 "/></g></g></g></svg>